<?xml version="1.0" encoding="UTF-8"?>
<svg id="Layer_1" xmlns="http://www.w3.org/2000/svg" version="1.1" viewBox="0 0 512 512">
  <!-- Generator: Adobe Illustrator 29.8.1, SVG Export Plug-In . SVG Version: 2.1.1 Build 2)  -->
  <defs>
    <style>
      .st0 {
        fill: #ef6f9c;
      }
    </style>
  </defs>
  <rect class="st0" x="-5.86" y="131.57" width="304.91" height="40.05" rx="19.74" ry="19.74" transform="translate(-60.76 113.17) rotate(-35.46)"/>
  <rect class="st0" x="-9.86" y="334.6" width="175.2" height="36.67" rx="18.34" ry="18.34" transform="translate(-275.2 430.67) rotate(-90)"/>
  <rect class="st0" x="338.44" y="334.6" width="175.2" height="36.67" rx="18.34" ry="18.34" transform="translate(73.11 778.98) rotate(-90)"/>
  <rect class="st0" x="212.95" y="133.88" width="304.91" height="40.05" rx="19.74" ry="19.74" transform="translate(573.74 491.25) rotate(-144.54)"/>
  <path class="st0" d="M372.66,70.29h28.49c9.34,0,16.92,7.58,16.92,16.92v77.42c0,9.34-7.58,16.92-16.92,16.92h-16.55c-15.92,0-28.85-12.93-28.85-28.85v-65.49c0-9.34,7.58-16.92,16.92-16.92Z"/>
  <circle class="st0" cx="173.86" cy="301.8" r="36.47"/>
  <circle class="st0" cx="334.51" cy="301.8" r="36.47"/>
  <circle class="st0" cx="255.97" cy="281.49" r="26.31"/>
  <path class="st0" d="M298.05,345.95c-37.45,22.91-41.99,58.51-41.99,58.51,0,0-4.46-33.53-42.2-57.82-1.61-1.04,12.57-30.31,42.16-30.3,30.09.01,43.8,28.52,42.02,29.61Z"/>
  <path class="st0" d="M234.22,406.94c0,31.93-.87,50.43-.87,50.43h-119.04v-50.43c0-31.93,26.84-57.82,59.96-57.82s59.96,25.89,59.96,57.82Z"/>
  <path class="st0" d="M394.47,406.94c0,31.93-.87,50.43-.87,50.43h-119.04v-50.43c0-31.93,26.84-57.82,59.96-57.82s59.96,25.89,59.96,57.82Z"/>
</svg>