<?xml version="1.0" encoding="UTF-8"?>
<svg id="Layer_1" xmlns="http://www.w3.org/2000/svg" version="1.1" viewBox="0 0 1080 1080">
  <!-- Generator: Adobe Illustrator 30.2.1, SVG Export Plug-In . SVG Version: 2.1.1 Build 1)  -->
  <defs>
    <style>
      .st0 {
        fill: #3d3d3d;
      }
    </style>
  </defs>
  <path class="st0" d="M795.46,690.69c51.08-30.83,70.97-69.38,78.05-127.99,7.63,7.37,12.47,13.81,16.91,21.88,20.92,38.02,31.12,80.62,29.92,124.07-.99,35.85-12.07,76.64-39.51,101.33,1.06-26.74-2.76-50.86-9.41-76.52-18.52,39.35-44.16,72.23-77.4,99.63s-70.07,49.95-109.17,69.06c-65.59,32.05-107.23,51.54-144.85,121.32-20.04-40.26-48.83-71.42-87.62-91.44l-66.9-34.53c-70.87-36.19-144.89-87.65-176.98-163.58l-5.26,25.43c-3.47,16.76-4.26,33.05-4.58,51.04-60.55-58.27-45.12-191.25,7.75-247.92,6.99,50.1,19.2,83.57,58.13,114.22,17.47,13.63,36.72,21.95,57.65,30.43-29.29,7.16-55.13,15.61-80.16,30.73,48.71,64.54,154.55,117.99,226.98,60.12,19.95,17.93,36.47,37.69,50.25,60.04,16.77,27.18,16.49,46.97,21.35,78.44l4.35-31.84c2.49-18.23,8.6-35.2,18.61-50.56,13.63-20.92,29.28-39.36,48.48-56.23,38.03,32.78,89.83,29.56,133.67,11.14,36.48-15.32,67.76-40.27,92.53-71.24-25.66-14.18-51.15-23.39-79.92-30.48l37.14-16.57v.02Z"/>
  <path class="st0" d="M708.49,646.86c-31.85,27.31-64.14,50.86-97.64,75.27-27.69,20.18-51.28,43.28-70.61,72.22-18.27-28-40.8-49.8-67.11-69.25-34.03-25.16-67.01-49.66-99.68-76.5-19.78-17.44-37.32-34.99-52.13-56.6-26.78-39.05-35.42-87.08-18.97-132.26,12.7-34.88,40.52-63.54,75.28-76.32,66.2-24.34,129.44,13.28,162.47,70.83,24.85-41.55,56.25-67.47,104.08-77.07,79.92-11.46,147.53,58.24,141.99,137.69-3.87,55.53-36.28,96.48-77.69,131.98h.01ZM688.17,596.91c14.32-15.62,26.03-31.37,33.47-50.64,9.48-24.55,8.68-51.86-5-74.61-16.56-27.54-47.15-42.62-79.42-40.67-30.26,1.83-56.64,16.82-75.42,40.16-9.04,11.23-14.79,23.48-22.04,37.27-10.47-24.51-24.19-45.36-45.47-59.68-21.89-14.73-47-21.52-72.94-16.69-32.82,6.11-58.93,29.35-66.75,61.92-10.72,44.67,17.98,84.2,47.84,114.15,46.59,43.11,93.23,73.75,138.13,120.95,27.74-28.36,56.74-53.64,87.45-78.44,21.22-17.14,40.79-33.75,60.13-53.71h.02Z"/>
  <path class="st0" d="M540.3,422.13c-10.47-13.03-20.4-23.51-32.52-34.16l1.53-73.93c-31.03-2.57-63.44-8.24-94.82-12.92-11.29,11.48-25.98,20.34-42.56,14.26-12.4-4.55-21.23-15.59-23.38-26.93-2.81-14.81,1.98-28.4,12.98-37.15,17.51-13.94,40.57-7.95,53.97,8.01,31.22-5.11,62.94-10.9,94.92-12.14l.98-19.44c-26.04-8.71-45.51-28.98-53.97-51.8-10.67-28.74-6.07-58.4,10.89-81.62,21.87-29.94,57.61-44.03,94.14-35.16,37.7,9.15,65.2,43.45,66.75,82.49,1.53,38.69-22.63,72.99-58.77,85.74l1.31,19.96c31.75.76,63.25,6.91,93.21,12.3,11.92-14.07,30.93-21.39,48.4-12.16,15.85,8.36,23.71,27.73,17.56,45.06-6.22,17.54-24.74,28.21-43.35,23.22-8.63-2.31-14.84-8.18-20.73-15.25-31.53,5.59-62.13,10.18-94.34,13.46l2.22,71.7c-12.52,10.83-24.51,22.31-34.42,36.47h0ZM565.75,185.05c11.9-8.05,19.73-20.53,20.67-34.81,1.17-17.66-8.33-33.03-22.03-41.28-14.84-8.94-32.6-8.9-47.28-.02-14.1,8.53-22.39,23.06-22.21,39.07.17,14.98,8.47,29.38,21.68,37.49,1.45-13.77,11.3-23.22,24.14-23.39,12.34-.17,22.49,8.38,25.03,22.94h0Z"/>
  <path class="st0" d="M686.61,792.79c-17.17,11.27-38.69,7.09-50.19-9.45-6.68-9.61-5.09-20.55-1.91-32.75-40.54,23.99-73.03,69.66-94.03,109.55-24.64-43.08-50.92-83.1-93.84-109.36,3.19,12.24,4.66,22.81-2.01,32.36-10.18,14.58-29.8,19.85-45.63,12.63-15.91-7.26-25.44-23.86-22.31-41.68,2.98-16.93,17.62-30.44,36.32-31.26,45.84-2.01,106.31,64.69,127.09,104.53,25.31-39.15,52.05-73.28,92.82-95.54,11.92-6.51,24.86-10.48,38.24-8.56,15.89,2.29,28.61,13.95,32.12,28,4.05,16.25-2.26,32.06-16.68,41.52h.01ZM412.04,747.75c-9.17,2.73-13.2,12.41-10.54,20.21,2.93,8.59,12.08,12.56,20.29,9.84s12.23-11.36,10-19.17c-2.41-8.45-10.99-13.47-19.75-10.87h0ZM658.66,748.25c-8.89,3.67-11.94,13.66-8.57,20.72,3.94,8.26,12.52,12.04,21.09,8.35,7.3-3.14,11.29-12.1,8.41-19.79-3-8.01-12-12.98-20.93-9.28h0Z"/>
  <path class="st0" d="M242.48,483.54c-11.58-2.86-38.75-6.34-32.61-24.07,2.39-6.91,10.11-8.41,16.81-5.77,2.08-7.11,6.74-11.86,13.42-10.98,6.07.8,11.41,6.43,10.8,13.96-.75,9.23-4.61,17.97-8.41,26.86h0Z"/>
  <path class="st0" d="M864.36,474.32c-8.13,5.2-18,7.09-27.74,8.86-3.72-9.02-6.96-17.59-7.73-26.51-.69-7.93,4.86-12.5,10.89-13.91,7.41-1.73,9.18,7.02,13.87,9.42,4.43,2.27,12.03-1.05,14.86,5.81,1.95,4.72,2.59,12.02-4.14,16.33h-.01Z"/>
  <path class="st0" d="M725.34,700.8c-23.31-.28-44.44,3.32-65.45,11.79,14.54-19.74,52.21-36.61,72.17-22.01,2.16,3.64-1.35,10.29-6.73,10.22h.01Z"/>
  <path class="st0" d="M420.12,711.94c-21.6-7.53-41.53-11.89-63.94-10.65-3.18.18-7.01-4.43-7.07-7.01-.28-12.67,33.23-10,43.19-3.98,10.13,5.78,19.76,11.48,27.82,21.63h0Z"/>
  <path class="st0" d="M430.85,357.41c-2.97-.2-6.68-4.12-6.78-6.24-.12-2.64,3.07-6.33,6.6-7.24,22.42-5.76,46.17,7.58,53.99,30.13-18.52-9.01-34.03-15.3-53.81-16.65h0Z"/>
  <path class="st0" d="M649.05,357.44c-19.06,1.78-34.53,7.88-52.07,16.2,6.9-23.35,32.55-35.37,54.46-28.93,2.53.74,5.55,4.55,5.29,6.55-.28,2.25-4.47,5.89-7.68,6.19h0Z"/>
  <path class="st0" d="M373.84,671.3c-18.71-4.73-39.19,9.19-43.51-.33-1.76-3.89,0-9.16,4-11.08,14.01-6.75,30.13-1.55,39.51,11.41h0Z"/>
  <path class="st0" d="M742.89,674.56c-12.93-2.94-23.45-5.02-36.25-3.87,9.58-11.76,25.09-17.52,39.07-10.88,3.02,1.43,5.61,5.99,5.37,8.7-.22,2.51-5.14,6.74-8.2,6.05h.01Z"/>
  <path class="st0" d="M570.2,567.73l-30.03,29.33-29.17-28.18c-8.91-8.61-10.6-23.05-2.68-32.5,4.08-4.87,10.49-6.96,16.56-6.34,5.56.57,11.13,4.42,15.84,9.78,5.2-7.05,13.32-11.4,21.9-9.32,8.06,1.96,14.07,8.94,14.79,18.59.43,5.74-2.29,13.85-7.2,18.64h-.01Z"/>
</svg>