<?xml version="1.0" encoding="UTF-8"?>
<svg id="Layer_1" xmlns="http://www.w3.org/2000/svg" version="1.1" viewBox="0 0 512 512">
  <!-- Generator: Adobe Illustrator 29.8.1, SVG Export Plug-In . SVG Version: 2.1.1 Build 2)  -->
  <defs>
    <style>
      .st0 {
        fill: #ff6b9d;
      }
    </style>
  </defs>
  <circle class="st0" cx="105.99" cy="194.26" r="50.27"/>
  <circle class="st0" cx="196.81" cy="116.42" r="50.27"/>
  <circle class="st0" cx="316.82" cy="116.42" r="50.27"/>
  <circle class="st0" cx="406.01" cy="194.26" r="50.27"/>
  <path class="st0" d="M362.73,443.54c-47.75.25-75.58-6.74-107.47-5.47-62.35,2.48-59.53,8.11-108.72,7.77-32.43-.23-60.21-31.42-52.06-72.73,3.14-15.92,38.44-51.15,40.71-54.04,24.67-31.37,63.65-74.26,75.68-86.9,16.76-17.6,35.32-17.3,44.69-17.43,8.66-.12,28.83-2.16,44.02,14.87,23.22,24.09,51.6,56.82,96.16,108.38,30.53,35.32,31.05,98.66-33.01,105.55Z"/>
</svg>